# xmcd
#
# Track frame offsets:
#	150
#	12873
#	24058
#	38614
#	49387
#	62528
#	73337
#	86563
#	101825
#	114351
#
# Disc length: 1698 seconds
#
# Revision: 1
# Processed by: cddbd v1.5.1PL0 Copyright (c) Steve Scherf et al.
# Submitted via: audiograbber 1.82.00
#
DISCID=7906a00a
DTITLE=Don Williams - You're My Best Friend
DYEAR=1975
DGENRE=Country
TTITLE0=You're My Best Friend
TTITLE1=Help Yourselves to Each Other
TTITLE2=I Don't Wanna Let Go
TTITLE3=Sweet Fever
TTITLE4=Someone Like You
TTITLE5=Love Me Tonight (Turn Out the Light and)  
TTITLE6=Where Are You
TTITLE7=Tempted
TTITLE8=You're The Only One
TTITLE9=Reason to Be
EXTD=ABC records release DOSD-2021 \nMost likely a straight mastertape dub or r
EXTD=ecord copy if you have this on CD very rare
EXTT0=
EXTT1=
EXTT2=
EXTT3=
EXTT4=
EXTT5=
EXTT6=
EXTT7=
EXTT8=
EXTT9=
PLAYORDER=
